<mxfile host="app.diagrams.net" modified="2023-04-17T11:23:20.395Z" agent="Mozilla/5.0 (Windows NT 10.0; Win64; x64) AppleWebKit/537.36 (KHTML, like Gecko) Chrome/111.0.0.0 Safari/537.36" etag="wdvXvthx7N_hN4swA3Ee" version="21.1.8" type="google">
  <diagram name="Page-1" id="KgyUBWcymzVbRL4ULzPH">
    <mxGraphModel grid="0" page="1" gridSize="10" guides="1" tooltips="1" connect="1" arrows="1" fold="1" pageScale="1" pageWidth="850" pageHeight="1100" math="0" shadow="0">
      <root>
        <mxCell id="0" />
        <mxCell id="1" parent="0" />
        <mxCell id="V41M7G4Ge3CnORrFQjIy-25" value="" style="rounded=0;whiteSpace=wrap;html=1;fillColor=#dae8fc;strokeColor=#6c8ebf;" vertex="1" parent="1">
          <mxGeometry x="120" y="225" width="80" height="20" as="geometry" />
        </mxCell>
        <mxCell id="V41M7G4Ge3CnORrFQjIy-26" value="" style="rounded=0;whiteSpace=wrap;html=1;fillColor=#dae8fc;strokeColor=#6c8ebf;" vertex="1" parent="1">
          <mxGeometry x="200" y="225" width="80" height="20" as="geometry" />
        </mxCell>
        <mxCell id="V41M7G4Ge3CnORrFQjIy-27" value="" style="rounded=0;whiteSpace=wrap;html=1;" vertex="1" parent="1">
          <mxGeometry x="280" y="225" width="80" height="20" as="geometry" />
        </mxCell>
        <mxCell id="V41M7G4Ge3CnORrFQjIy-28" value="..." style="rounded=0;whiteSpace=wrap;html=1;fillColor=#dae8fc;strokeColor=#6c8ebf;" vertex="1" parent="1">
          <mxGeometry x="40" y="225" width="80" height="20" as="geometry" />
        </mxCell>
        <mxCell id="V41M7G4Ge3CnORrFQjIy-29" value="..." style="rounded=0;whiteSpace=wrap;html=1;" vertex="1" parent="1">
          <mxGeometry x="360" y="225" width="80" height="20" as="geometry" />
        </mxCell>
        <mxCell id="V41M7G4Ge3CnORrFQjIy-51" value="" style="shape=partialRectangle;whiteSpace=wrap;html=1;bottom=1;right=1;left=1;top=0;fillColor=none;routingCenterX=-0.5;dashed=1;" vertex="1" parent="1">
          <mxGeometry x="200" y="250" width="160" height="5" as="geometry" />
        </mxCell>
        <mxCell id="V41M7G4Ge3CnORrFQjIy-68" value="Dissipation" style="text;html=1;strokeColor=none;fillColor=none;align=center;verticalAlign=middle;whiteSpace=wrap;rounded=0;fontSize=10;" vertex="1" parent="1">
          <mxGeometry x="235" y="255" width="90" height="30" as="geometry" />
        </mxCell>
        <mxCell id="V41M7G4Ge3CnORrFQjIy-70" value="" style="group" connectable="0" vertex="1" parent="1">
          <mxGeometry x="450" y="175" width="130" height="38" as="geometry" />
        </mxCell>
        <mxCell id="V41M7G4Ge3CnORrFQjIy-18" value="" style="rounded=0;whiteSpace=wrap;html=1;movable=1;resizable=1;rotatable=1;deletable=1;editable=1;locked=0;connectable=1;" vertex="1" parent="V41M7G4Ge3CnORrFQjIy-70">
          <mxGeometry width="104" height="38" as="geometry" />
        </mxCell>
        <mxCell id="V41M7G4Ge3CnORrFQjIy-17" value="" style="rounded=0;whiteSpace=wrap;html=1;movable=1;resizable=1;rotatable=1;deletable=1;editable=1;locked=0;connectable=1;" vertex="1" parent="V41M7G4Ge3CnORrFQjIy-70">
          <mxGeometry x="8.666666666666668" y="7.6" width="26" height="7.6" as="geometry" />
        </mxCell>
        <mxCell id="V41M7G4Ge3CnORrFQjIy-19" value="&lt;font style=&quot;font-size: 10px;&quot;&gt;No fog&lt;/font&gt;" style="text;html=1;strokeColor=none;fillColor=none;align=right;verticalAlign=middle;whiteSpace=wrap;rounded=0;labelPosition=left;verticalLabelPosition=middle;movable=1;resizable=1;rotatable=1;deletable=1;editable=1;locked=0;connectable=1;" vertex="1" parent="V41M7G4Ge3CnORrFQjIy-70">
          <mxGeometry x="78" width="52" height="22.8" as="geometry" />
        </mxCell>
        <mxCell id="V41M7G4Ge3CnORrFQjIy-20" value="&lt;font style=&quot;font-size: 10px;&quot;&gt;Fog&lt;/font&gt;" style="text;html=1;strokeColor=none;fillColor=none;align=right;verticalAlign=middle;whiteSpace=wrap;rounded=0;labelPosition=left;verticalLabelPosition=middle;movable=1;resizable=1;rotatable=1;deletable=1;editable=1;locked=0;connectable=1;" vertex="1" parent="V41M7G4Ge3CnORrFQjIy-70">
          <mxGeometry x="69.33333333333334" y="15.2" width="52" height="22.8" as="geometry" />
        </mxCell>
        <mxCell id="V41M7G4Ge3CnORrFQjIy-21" value="" style="rounded=0;whiteSpace=wrap;html=1;fillColor=#dae8fc;strokeColor=#6c8ebf;movable=1;resizable=1;rotatable=1;deletable=1;editable=1;locked=0;connectable=1;" vertex="1" parent="V41M7G4Ge3CnORrFQjIy-70">
          <mxGeometry x="8.666666666666668" y="22.8" width="26" height="7.6" as="geometry" />
        </mxCell>
        <mxCell id="V41M7G4Ge3CnORrFQjIy-72" value="t&lt;sub&gt;1&lt;/sub&gt;" style="text;html=1;strokeColor=none;fillColor=none;align=center;verticalAlign=middle;whiteSpace=wrap;rounded=0;fontSize=10;" vertex="1" parent="1">
          <mxGeometry x="130" y="200" width="60" height="30" as="geometry" />
        </mxCell>
        <mxCell id="V41M7G4Ge3CnORrFQjIy-73" value="t&lt;span style=&quot;font-size: 10px;&quot;&gt;&lt;sub&gt;2&lt;/sub&gt;&lt;/span&gt;" style="text;html=1;strokeColor=none;fillColor=none;align=center;verticalAlign=middle;whiteSpace=wrap;rounded=0;fontSize=10;" vertex="1" parent="1">
          <mxGeometry x="210" y="200" width="60" height="30" as="geometry" />
        </mxCell>
        <mxCell id="V41M7G4Ge3CnORrFQjIy-74" value="t&lt;sub&gt;3&lt;/sub&gt;" style="text;html=1;strokeColor=none;fillColor=none;align=center;verticalAlign=middle;whiteSpace=wrap;rounded=0;fontSize=10;" vertex="1" parent="1">
          <mxGeometry x="290" y="200" width="60" height="30" as="geometry" />
        </mxCell>
        <mxCell id="V41M7G4Ge3CnORrFQjIy-75" value="" style="rounded=0;whiteSpace=wrap;html=1;" vertex="1" parent="1">
          <mxGeometry x="120" y="145" width="80" height="20" as="geometry" />
        </mxCell>
        <mxCell id="V41M7G4Ge3CnORrFQjIy-76" value="" style="rounded=0;whiteSpace=wrap;html=1;fillColor=#dae8fc;strokeColor=#6c8ebf;" vertex="1" parent="1">
          <mxGeometry x="200" y="145" width="80" height="20" as="geometry" />
        </mxCell>
        <mxCell id="V41M7G4Ge3CnORrFQjIy-77" value="" style="rounded=0;whiteSpace=wrap;html=1;" vertex="1" parent="1">
          <mxGeometry x="280" y="145" width="80" height="20" as="geometry" />
        </mxCell>
        <mxCell id="V41M7G4Ge3CnORrFQjIy-78" value="..." style="rounded=0;whiteSpace=wrap;html=1;" vertex="1" parent="1">
          <mxGeometry x="40" y="145" width="80" height="20" as="geometry" />
        </mxCell>
        <mxCell id="V41M7G4Ge3CnORrFQjIy-79" value="..." style="rounded=0;whiteSpace=wrap;html=1;fillColor=#dae8fc;strokeColor=#6c8ebf;" vertex="1" parent="1">
          <mxGeometry x="360" y="145" width="80" height="20" as="geometry" />
        </mxCell>
        <mxCell id="V41M7G4Ge3CnORrFQjIy-82" value="t&lt;sub&gt;1&lt;/sub&gt;" style="text;html=1;strokeColor=none;fillColor=none;align=center;verticalAlign=middle;whiteSpace=wrap;rounded=0;fontSize=10;" vertex="1" parent="1">
          <mxGeometry x="130" y="120" width="60" height="30" as="geometry" />
        </mxCell>
        <mxCell id="V41M7G4Ge3CnORrFQjIy-83" value="t&lt;span style=&quot;font-size: 10px;&quot;&gt;&lt;sub&gt;2&lt;/sub&gt;&lt;/span&gt;" style="text;html=1;strokeColor=none;fillColor=none;align=center;verticalAlign=middle;whiteSpace=wrap;rounded=0;fontSize=10;" vertex="1" parent="1">
          <mxGeometry x="210" y="120" width="60" height="30" as="geometry" />
        </mxCell>
        <mxCell id="V41M7G4Ge3CnORrFQjIy-84" value="t&lt;sub&gt;3&lt;/sub&gt;" style="text;html=1;strokeColor=none;fillColor=none;align=center;verticalAlign=middle;whiteSpace=wrap;rounded=0;fontSize=10;" vertex="1" parent="1">
          <mxGeometry x="290" y="120" width="60" height="30" as="geometry" />
        </mxCell>
        <mxCell id="V41M7G4Ge3CnORrFQjIy-85" value="" style="rounded=0;whiteSpace=wrap;html=1;fillColor=#dae8fc;strokeColor=#6c8ebf;" vertex="1" parent="1">
          <mxGeometry x="280" y="145" width="80" height="20" as="geometry" />
        </mxCell>
        <mxCell id="V41M7G4Ge3CnORrFQjIy-89" value="" style="shape=partialRectangle;whiteSpace=wrap;html=1;bottom=1;right=1;left=1;top=0;fillColor=none;routingCenterX=-0.5;dashed=1;" vertex="1" parent="1">
          <mxGeometry x="120" y="170" width="160" height="5" as="geometry" />
        </mxCell>
        <mxCell id="V41M7G4Ge3CnORrFQjIy-90" value="Onset" style="text;html=1;strokeColor=none;fillColor=none;align=center;verticalAlign=middle;whiteSpace=wrap;rounded=0;fontSize=10;" vertex="1" parent="1">
          <mxGeometry x="155" y="175" width="90" height="30" as="geometry" />
        </mxCell>
      </root>
    </mxGraphModel>
  </diagram>
</mxfile>
